<svg viewBox="0 0 50 35" fill="none" xmlns="http://www.w3.org/2000/svg">
  <!-- Upper swoosh - curves UP from left to right -->
  <path d="M3 22 C3 24 4 25 6 24 C10 22 16 14 22 9 C28 4 34 4 40 8 C44 11 47 15 47 15 L45 13 C43 10 40 7 36 6 C30 5 24 8 18 14 C12 20 7 26 4 26 C3 26 3 24 3 22 Z" fill="#b91c1c"/>
  <!-- Lower swoosh - curves DOWN from left to right -->
  <path d="M3 13 C3 11 4 10 6 11 C10 13 16 21 22 26 C28 31 34 31 40 27 C44 24 47 20 47 20 L45 22 C43 25 40 28 36 29 C30 30 24 27 18 21 C12 15 7 9 4 9 C3 9 3 11 3 13 Z" fill="#b91c1c"/>
</svg>
